<svg width="190" height="146" viewBox="0 0 190 146" fill="none" xmlns="http://www.w3.org/2000/svg">
<g clip-path="url(#clip0_0_379)">
<path d="M169.054 73.7216C165.577 58.6326 154.852 43.5889 138.943 39.3247C130.622 37.0948 121.36 38.1138 113.758 41.9802C113.94 24.4485 105.094 6.7528 86.5554 1.59518C73.759 -1.9677 60.401 3.43071 53.6933 13.4668C45.0038 9.20947 33.8351 9.3665 25.2028 14.053C8.51418 23.119 1.94248 43.7285 0.28972 61.1242C-1.338 78.2232 3.75981 96.8262 18.37 107.455C28.934 115.14 43.3904 118.106 55.618 113.496C64.9765 125.898 81.4147 131.956 97.2197 130.197C108.213 128.972 123.871 123.7 132.096 114.449C138.449 117.551 146.348 117.931 153.242 115.154C169.591 108.558 172.51 88.7059 169.058 73.7216H169.054Z" fill="#4374BA"/>
<path d="M112.004 72.1357H101.379L90.0348 58.1616C89.3778 57.2017 88.271 56.6261 87.0881 56.6261H85.1402H55.3371C53.3803 56.6261 51.7954 58.1684 51.7954 60.0727V94.5386H85.1402H88.9829H115.545C117.502 94.5386 119.087 92.9962 119.087 91.092V82.4755C119.087 73.859 112.004 72.1357 112.004 72.1357Z" fill="#F44336"/>
<path d="M74.8166 42.8397C71.8823 42.8397 69.5041 45.1541 69.5041 48.0096H65.9624C65.9624 45.1541 63.5842 42.8397 60.6499 42.8397C57.7156 42.8397 55.3374 45.1541 55.3374 48.0096C55.3374 50.8651 57.7156 53.1795 60.6499 53.1795H65.9624V56.6261H69.5041V53.1795H74.8166C77.7508 53.1795 80.1291 50.8651 80.1291 48.0096C80.1291 45.1541 77.7508 42.8397 74.8166 42.8397Z" fill="#78909C"/>
<path d="M62.4204 104.878C68.2884 104.878 73.0454 100.249 73.0454 94.5386C73.0454 88.8281 68.2884 84.1989 62.4204 84.1989C56.5524 84.1989 51.7954 88.8281 51.7954 94.5386C51.7954 100.249 56.5524 104.878 62.4204 104.878Z" fill="#37474F"/>
<path d="M101.379 104.878C107.247 104.878 112.004 100.249 112.004 94.5386C112.004 88.8281 107.247 84.1989 101.379 84.1989C95.5109 84.1989 90.7539 88.8281 90.7539 94.5386C90.7539 100.249 95.5109 104.878 101.379 104.878Z" fill="#37474F"/>
<path d="M62.4204 99.7085C65.3544 99.7085 67.7329 97.3939 67.7329 94.5387C67.7329 91.6834 65.3544 89.3688 62.4204 89.3688C59.4864 89.3688 57.1079 91.6834 57.1079 94.5387C57.1079 97.3939 59.4864 99.7085 62.4204 99.7085Z" fill="#78909C"/>
<path d="M101.379 99.7085C104.313 99.7085 106.691 97.3939 106.691 94.5387C106.691 91.6834 104.313 89.3688 101.379 89.3688C98.4449 89.3688 96.0664 91.6834 96.0664 94.5387C96.0664 97.3939 98.4449 99.7085 101.379 99.7085Z" fill="#78909C"/>
<path d="M58.8787 61.796H84.6125C85.1384 61.796 85.636 62.0235 85.9725 62.4164L94.2954 72.1358H58.8787C57.9012 72.1358 57.1079 71.3638 57.1079 70.4125V63.5193C57.1079 62.5681 57.9012 61.796 58.8787 61.796Z" fill="#81D4FA"/>
</g>
<defs>
<clipPath id="clip0_0_379">
<rect width="190" height="145" fill="white" transform="translate(0 0.5)"/>
</clipPath>
</defs>
</svg>
