<svg width="172" height="130" viewBox="0 0 172 130" fill="none" xmlns="http://www.w3.org/2000/svg">
<path d="M164.827 37.4141C156.442 25.4934 140.089 19.7634 127.411 24.7303C119.026 3.67323 88.9988 -3.96109 66.4856 1.91675C40.7087 8.64705 29.222 34.1727 35.9154 56.8316C28.8482 55.302 21.1615 56.426 14.6931 60.1418C1.93961 67.4736 -2.30001 83.2922 1.3824 96.8766C5.29323 111.303 17.6002 122.471 32.579 124.289C45.1248 125.812 56.4939 121.326 66.5098 114.548C77.2213 131.088 103.358 132.642 122.13 127.156C134.108 123.657 144.917 116.593 151.849 106.161C155.562 100.575 158.722 92.9821 158.539 85.9424C175.31 78.6243 174.954 51.8028 164.831 37.4141H164.827Z" fill="#EE2D5B"/>
<path d="M81.9449 42.0607C84.3855 44.5029 84.3855 48.4591 81.9449 50.8982C79.5027 53.3404 75.5465 53.3404 73.1059 50.8982L68.6871 46.4794C66.2449 44.0373 66.2449 40.081 68.6871 37.6419C71.1277 35.1998 75.0855 35.1998 77.5246 37.6419L81.9449 42.0607ZM102.528 46.4794C104.967 44.0373 104.967 40.081 102.528 37.6419C100.086 35.1998 96.1277 35.1998 93.6871 37.6419L89.2684 42.0607C86.8277 44.5029 86.8277 48.4591 89.2684 50.8982C91.7105 53.3404 95.6684 53.3404 98.1059 50.8982L102.528 46.4794Z" fill="#795548"/>
<path d="M101.231 80.6294C101.231 86.0794 94.2856 90.4982 85.606 90.4982C76.9263 90.4982 69.981 86.0794 69.981 80.6294V75.6966C69.981 65.8279 74.6466 59.2482 80.3981 59.2482H90.8153C96.5685 59.2482 101.231 65.8279 101.231 75.695V80.6294Z" fill="#5D4037"/>
<path d="M69.9811 75.6951C69.9811 70.3201 71.3717 65.9326 73.5624 63.0404C65.9124 65.167 61.4905 68.5638 60.7045 72.8873C60.153 75.9076 61.9374 78.8451 64.6889 79.4482C65.0249 79.5232 65.3608 79.5592 65.6889 79.5592C67.4483 79.5592 69.067 78.5467 69.9827 76.942V75.6951H69.9811ZM110.509 72.8873C109.722 68.5623 105.301 65.1685 97.6514 63.0404C99.8405 65.9326 101.231 70.3201 101.231 75.6951V76.9451C102.147 78.5482 103.764 79.5607 105.525 79.5607C105.851 79.5607 106.187 79.5248 106.523 79.4498C109.275 78.8467 111.058 75.9076 110.509 72.8873Z" fill="#8D6E63"/>
<path d="M72.3904 76.4357C71.8185 76.4357 71.2467 76.5122 70.6764 76.67C66.5764 77.8169 64.342 82.8404 65.6826 87.8872C66.8404 92.2341 70.2732 95.1857 73.8232 95.1857C74.3951 95.1857 74.9685 95.1091 75.5373 94.9513C79.6389 93.806 81.8732 88.781 80.5295 83.7341C79.3764 79.3872 75.9435 76.4357 72.3904 76.4357ZM98.8232 76.4357C95.2717 76.4357 91.8373 79.3872 90.6842 83.7341C89.342 88.7794 91.5748 93.8044 95.6764 94.9513C96.2435 95.1107 96.817 95.1857 97.3889 95.1857C100.94 95.1857 104.375 92.2341 105.531 87.8872C106.87 82.8419 104.637 77.8185 100.536 76.67C99.967 76.5122 99.3935 76.4357 98.8232 76.4357ZM69.981 54.756C69.981 44.2107 78.6623 38.9357 85.606 38.9357C92.5514 38.9357 101.231 44.2107 101.231 54.756C101.231 63.495 94.2357 67.0607 85.606 67.0607C76.9764 67.0607 69.981 63.495 69.981 54.756Z" fill="#8D6E63"/>
<path d="M69.9809 75.695C69.9809 74.9825 70.0121 74.2935 70.059 73.6154C69.9855 73.6341 69.9105 73.6404 69.8371 73.6591C67.0574 74.4372 64.8746 76.4279 63.5605 79.031C63.9168 79.2107 64.2887 79.3607 64.6887 79.4482C65.0246 79.5232 65.3605 79.5591 65.6887 79.5591C66.1293 79.5591 66.5559 79.4763 66.9684 79.3575C67.7449 78.2622 68.7652 77.4122 69.9809 76.9154V75.695ZM101.375 73.6607C101.301 73.6404 101.226 73.6341 101.153 73.6169C101.2 74.2935 101.231 74.9825 101.231 75.695V76.9169C102.446 77.4122 103.468 78.2622 104.243 79.3591C104.657 79.4779 105.082 79.5607 105.525 79.5607C105.851 79.5607 106.187 79.5247 106.523 79.4497C106.923 79.3622 107.295 79.2138 107.653 79.0325C106.337 76.4294 104.154 74.4388 101.375 73.6607Z" fill="#6D4C41"/>
<path d="M72.5451 45.9185C73.7498 44.1091 75.2951 42.6528 77.0123 41.5481L75.3154 39.8513C74.0951 38.631 72.117 38.631 70.8966 39.8513C69.6763 41.0716 69.6763 43.0497 70.8966 44.27L72.5451 45.9185ZM98.667 45.9185L100.315 44.27C101.536 43.0497 101.536 41.0716 100.315 39.8513C99.0982 38.631 97.117 38.631 95.8966 39.8513L94.2013 41.5466C95.9185 42.6528 97.4623 44.1091 98.667 45.9185ZM72.3904 79.5606C72.0966 79.5606 71.8029 79.5997 71.5185 79.6794C69.106 80.356 67.817 83.7481 68.7013 87.0856C69.4701 89.9669 71.6232 92.0606 73.8232 92.0606C74.117 92.0606 74.4107 92.0216 74.6951 91.9419C77.1107 91.2669 78.3982 87.8763 77.5107 84.5388C76.7451 81.6528 74.592 79.5606 72.3904 79.5606ZM99.6935 79.6794C99.4091 79.5997 99.1154 79.5606 98.8232 79.5606C96.6232 79.5606 94.4685 81.6544 93.7029 84.5356C92.8154 87.8778 94.1029 91.2685 96.517 91.9419C96.8029 92.0216 97.0966 92.0606 97.3888 92.0606C99.5888 92.0606 101.744 89.9669 102.509 87.0825C103.395 83.7481 102.108 80.356 99.6935 79.6794ZM94.981 61.7856C94.981 65.67 90.7841 67.0606 85.606 67.0606C80.4279 67.0606 76.231 65.67 76.231 61.7856C76.231 57.9044 80.4279 52.9981 85.606 52.9981C90.7841 52.9981 94.981 57.9044 94.981 61.7856Z" fill="#BCAAA4"/>
<path d="M91.856 49.8732C91.4416 49.8732 91.0441 50.1201 90.7511 50.5596C90.4581 50.9992 90.2935 51.5953 90.2935 52.2169C90.2935 52.8385 90.4581 53.4347 90.7511 53.8742C91.0441 54.3137 91.4416 54.5607 91.856 54.5607C92.2704 54.5607 92.6678 54.3137 92.9608 53.8742C93.2538 53.4347 93.4185 52.8385 93.4185 52.2169C93.4185 51.5953 93.2538 50.9992 92.9608 50.5596C92.6678 50.1201 92.2704 49.8732 91.856 49.8732ZM79.356 49.8732C78.9416 49.8732 78.5441 50.1201 78.2511 50.5596C77.9581 50.9992 77.7935 51.5953 77.7935 52.2169C77.7935 52.8385 77.9581 53.4347 78.2511 53.8742C78.5441 54.3137 78.9416 54.5607 79.356 54.5607C79.7704 54.5607 80.1678 54.3137 80.4608 53.8742C80.7538 53.4347 80.9185 52.8385 80.9185 52.2169C80.9185 51.5953 80.7538 50.9992 80.4608 50.5596C80.1678 50.1201 79.7704 49.8732 79.356 49.8732Z" fill="black"/>
<path d="M84.0435 59.2482H87.1685V67.0607H84.0435V59.2482Z" fill="#A1887F"/>
<path d="M88.731 57.6857C88.731 58.5497 87.3325 60.8107 85.606 60.8107C83.881 60.8107 82.481 58.5497 82.481 57.6857C82.481 56.8216 83.881 56.1232 85.606 56.1232C87.3325 56.1232 88.731 56.8216 88.731 57.6857Z" fill="#DC2CFF"/>
</svg>
