<svg width="190" height="130" viewBox="0 0 190 130" fill="none" xmlns="http://www.w3.org/2000/svg">
<g clip-path="url(#clip0_0_391)">
<path d="M189.171 72.0411C187.378 62.7077 182.337 54.7094 175.597 48.3779C176.895 29.9093 162.456 12.614 144.076 6.32704C128.519 1.00696 112.376 4.80586 101.825 14.9201C87.3487 -6.35214 44.7136 -2.58561 27.4257 11.8979C14.2848 22.9063 10.332 41.3627 14.0096 58.0511C8.25645 62.3072 3.87884 68.5214 1.69813 75.2736C-5.79883 98.4918 15.2598 119.809 38.5558 115.84C40.1377 115.569 41.7035 115.16 43.2328 114.634C47.659 118.113 52.6354 120.957 57.8585 123.069C75.462 130.186 96.2334 130.845 114.933 129.328C133.471 127.827 154.498 124.635 170.111 113.756C183.68 104.301 192.391 88.8186 189.175 72.0371L189.171 72.0411Z" fill="#4D9141"/>
<path d="M95.0003 100.459L61.3062 85.4834V44.3016L95.0003 59.2768V100.459Z" fill="#FFC107"/>
<path d="M95 100.459L128.694 85.4834V44.3016L95 59.2768V100.459Z" fill="#FF3D00"/>
<path d="M61.3062 44.3016L95.0003 29.3264L128.694 44.3016L95.0003 59.2768L61.3062 44.3016Z" fill="#43A047"/>
<path d="M81.985 82.3535L74.2784 78.8755L72.9307 82.8945L66.9219 80.1896L75.4783 59.2767L80.7664 61.6615L89.3846 90.309L83.3459 87.5873L81.985 82.3535ZM75.6224 74.8696L80.6373 77.1328L78.1196 67.4101L75.6224 74.8696Z" fill="#FFF8E1"/>
<path d="M102.488 90.0095V63.7824L112.034 59.7859C115.456 58.352 118.054 57.8822 119.84 58.3726C121.62 58.8612 122.513 60.2838 122.513 62.6349C122.513 63.992 122.199 65.2837 121.564 66.5116C120.933 67.734 120.001 68.829 118.771 69.8043C120.158 69.5853 121.227 69.8099 121.967 70.4838C122.706 71.1577 123.079 72.2059 123.079 73.6248C123.079 76.1912 122.255 78.4693 120.606 80.4498C118.957 82.4284 116.514 84.1093 113.279 85.487L102.488 90.0095ZM108.893 72.0337L112.235 70.6335C113.635 70.0364 114.633 69.3644 115.23 68.6231C115.821 67.88 116.125 67.0245 116.125 66.0661C116.125 64.9561 115.803 64.2915 115.155 64.0763C114.511 63.8573 113.47 64.0463 112.034 64.651L108.893 65.9632V72.0337ZM108.893 76.1743V82.4602L113.092 80.7043C114.251 80.2195 115.138 79.5868 115.76 78.8044C116.379 78.02 116.688 77.1552 116.688 76.208C116.688 74.0217 115.587 73.3815 113.384 74.2968L108.893 76.1743Z" fill="#FFCCBC"/>
<path d="M102.068 51.2107C100.58 51.7985 98.8805 52.1073 96.9656 52.1261C95.0506 52.1504 93.0421 51.8771 90.9381 51.3118C88.8359 50.7446 86.8162 49.9303 84.8788 48.8615C81.6816 47.1 80.0287 45.3217 79.9276 43.5341C79.8209 41.7464 81.3484 40.1403 84.5119 38.727L85.5096 38.2796C87.4919 37.3886 89.6409 36.842 91.9583 36.6324C94.2738 36.4246 96.6193 36.5669 98.9929 37.061C101.361 37.559 103.57 38.3657 105.619 39.5001C108.571 41.1268 110.297 42.7254 110.801 44.2903C111.301 45.8589 110.539 47.2179 108.51 48.3748L102.662 45.1495C103.852 44.5711 104.363 43.9683 104.199 43.3431C104.03 42.7142 103.233 42.0028 101.799 41.2129C100.339 40.4061 98.815 40.0242 97.2277 40.0561C95.6403 40.0879 93.8339 40.5446 91.8066 41.4169L90.3746 42.0609C88.2163 43.0305 86.9959 43.8991 86.7207 44.674C86.4493 45.4453 87.1044 46.2726 88.6993 47.1487C90.0452 47.8937 91.3405 48.3448 92.5816 48.4983C93.8227 48.6518 95.0432 48.4871 96.2337 47.9985L102.068 51.2107Z" fill="#A5D6A7"/>
</g>
<defs>
<clipPath id="clip0_0_391">
<rect width="189.686" height="130" fill="white" transform="translate(0.157227)"/>
</clipPath>
</defs>
</svg>
